PathFileType	4	(X/Y/Z)	output.trc
DataRate	CameraRate	NumFrames	NumMarkers	Units	OrigDataRate	OrigDataStartFrame	OrigNumFrames
100	100	17	23	m	100	5285	6039
Frame#	Time	C7			T8			EL			EM			US			RS			AA			Fore_Clus_1			Fore_Clus_2			Fore_Clus_3			Fore_Clus_4			Hum_Clus_1			Hum_Clus_2			Hum_Clus_3			Hum_Clus_4			Thor_Clus_1			Thor_Clus_2			Thor_Clus_3			Thor_Clus_4			IJ			PX			GH			Thor_Clus_5		
		X1	Y1	Z1	X2	Y2	Z2	X3	Y3	Z3	X4	Y4	Z4	X5	Y5	Z5	X6	Y6	Z6	X7	Y7	Z7	X8	Y8	Z8	X9	Y9	Z9	X10	Y10	Z10	X11	Y11	Z11	X12	Y12	Z12	X13	Y13	Z13	X14	Y14	Z14	X15	Y15	Z15	X16	Y16	Z16	X17	Y17	Z17	X18	Y18	Z18	X19	Y19	Z19	X20	Y20	Z20	X21	Y21	Z21	X22	Y22	Z22	X23	Y23	Z23
5284	52.840000	0.066138	1.448937	0.028229	0.057585	1.221989	0.030697	-0.136846	1.110499	-0.156098	-0.101484	1.069623	-0.115639	-0.169312	0.892819	-0.294962	-0.196891	0.922267	-0.321635	-0.068918	1.363745	-0.089445	-0.127654	0.937798	-0.290094	-0.142133	0.893624	-0.319454	-0.158215	0.909926	-0.335634	-0.153615	0.964736	-0.316503	-0.155572	1.224562	-0.148833	-0.101309	1.227897	-0.174986	-0.089329	1.289930	-0.166577	-0.136965	1.294352	-0.132155	-0.048359	1.337933	0.161637	-0.110230	1.292051	0.126890	-0.074907	1.337475	0.125582	-0.071803	1.292337	0.179019	-0.008440	1.368014	0.092581	-0.084219	1.161500	0.133991	-0.062419	1.346373	-0.055637	-0.099476	1.312509	0.119082
5285	52.850000	0.066142	1.449091	0.028326	0.057650	1.222140	0.030654	-0.136990	1.110642	-0.156133	-0.101617	1.069744	-0.115705	-0.169628	0.892988	-0.295041	-0.197198	0.922460	-0.321698	-0.068850	1.363933	-0.089448	-0.127976	0.937964	-0.290174	-0.142437	0.893778	-0.319563	-0.158637	0.910043	-0.335690	-0.153914	0.964913	-0.316544	-0.155675	1.224695	-0.148833	-0.101437	1.228003	-0.175022	-0.089433	1.290045	-0.166605	-0.137017	1.294486	-0.132157	-0.048353	1.337958	0.161617	-0.110196	1.292091	0.126840	-0.074743	1.337753	0.125698	-0.071796	1.292348	0.178968	-0.008436	1.368109	0.092603	-0.084173	1.161549	0.133861	-0.062394	1.346469	-0.055687	-0.099480	1.312538	0.119046
5286	52.860000	0.066147	1.449245	0.028428	0.057716	1.222291	0.030617	-0.137130	1.110786	-0.156173	-0.101746	1.069865	-0.115777	-0.169947	0.893157	-0.295111	-0.197504	0.922652	-0.321756	-0.068774	1.364121	-0.089451	-0.128274	0.938110	-0.290237	-0.142777	0.893928	-0.319636	-0.159079	0.910123	-0.335720	-0.154209	0.965058	-0.316585	-0.155759	1.224835	-0.148841	-0.101528	1.228128	-0.175049	-0.089507	1.290173	-0.166634	-0.137046	1.294610	-0.132161	-0.048377	1.338022	0.161588	-0.110150	1.292140	0.126762	-0.074763	1.337811	0.125674	-0.071798	1.292380	0.178931	-0.008435	1.368205	0.092626	-0.084132	1.161600	0.133731	-0.062358	1.346562	-0.055738	-0.099451	1.312583	0.119006
5287	52.870000	0.066145	1.449406	0.028536	0.057783	1.222447	0.030587	-0.137267	1.110932	-0.156212	-0.101872	1.069988	-0.115850	-0.170274	0.893329	-0.295177	-0.197815	0.922850	-0.321810	-0.068695	1.364309	-0.089455	-0.128577	0.938273	-0.290278	-0.143055	0.894125	-0.319787	-0.159414	0.910308	-0.335775	-0.154499	0.965206	-0.316613	-0.155834	1.224975	-0.148840	-0.101604	1.228252	-0.175098	-0.089566	1.290277	-0.166663	-0.137082	1.294746	-0.132157	-0.048400	1.338063	0.161573	-0.110186	1.292233	0.126758	-0.074791	1.337871	0.125667	-0.071828	1.292415	0.178896	-0.008442	1.368304	0.092652	-0.084094	1.161651	0.133599	-0.062309	1.346656	-0.055791	-0.099428	1.312602	0.118949
5288	52.880000	0.066141	1.449563	0.028647	0.057847	1.222600	0.030563	-0.137399	1.111080	-0.156254	-0.101993	1.070110	-0.115927	-0.170604	0.893502	-0.295236	-0.198126	0.923048	-0.321860	-0.068614	1.364494	-0.089461	-0.128877	0.938396	-0.290311	-0.143385	0.894246	-0.319807	-0.159640	0.910501	-0.335849	-0.154771	0.965377	-0.316643	-0.155887	1.225127	-0.148863	-0.101660	1.228371	-0.175148	-0.089591	1.290393	-0.166714	-0.137107	1.294883	-0.132158	-0.048419	1.338120	0.161550	-0.110172	1.292313	0.126671	-0.074823	1.337942	0.125650	-0.071860	1.292454	0.178857	-0.008453	1.368402	0.092679	-0.084064	1.161702	0.133469	-0.062247	1.346746	-0.055845	-0.099432	1.312660	0.118897
5289	52.890000	0.066135	1.449715	0.028759	0.057905	1.222749	0.030545	-0.137525	1.111227	-0.156299	-0.102109	1.070230	-0.116008	-0.170934	0.893675	-0.295288	-0.198437	0.923246	-0.321903	-0.068531	1.364672	-0.089470	-0.129145	0.938520	-0.290328	-0.143660	0.894384	-0.319836	-0.159954	0.910643	-0.335843	-0.155045	0.965552	-0.316651	-0.155944	1.225272	-0.148879	-0.101728	1.228532	-0.175202	-0.089622	1.290509	-0.166774	-0.137122	1.295023	-0.132172	-0.048445	1.338152	0.161541	-0.110161	1.292342	0.126598	-0.074859	1.337997	0.125640	-0.071909	1.292482	0.178822	-0.008471	1.368497	0.092705	-0.084044	1.161754	0.133340	-0.062170	1.346833	-0.055901	-0.099403	1.312688	0.118818
5290	52.900000	0.066122	1.449864	0.028871	0.057957	1.222894	0.030534	-0.137646	1.111373	-0.156343	-0.102219	1.070348	-0.116089	-0.171267	0.893848	-0.295336	-0.198750	0.923446	-0.321942	-0.068451	1.364844	-0.089480	-0.129422	0.938663	-0.290347	-0.144001	0.894513	-0.319819	-0.160099	0.910965	-0.335986	-0.155305	0.965735	-0.316698	-0.155994	1.225440	-0.148884	-0.101775	1.228689	-0.175257	-0.089633	1.290628	-0.166826	-0.137117	1.295187	-0.132193	-0.048497	1.338195	0.161538	-0.110189	1.292382	0.126542	-0.074909	1.338046	0.125630	-0.071954	1.292503	0.178782	-0.008497	1.368590	0.092732	-0.084033	1.161804	0.133215	-0.062079	1.346917	-0.055958	-0.099427	1.312741	0.118776
5291	52.910000	0.066111	1.449999	0.028980	0.058000	1.223027	0.030528	-0.137759	1.111516	-0.156391	-0.102324	1.070462	-0.116176	-0.171594	0.894018	-0.295377	-0.199060	0.923641	-0.321973	-0.068371	1.365004	-0.089492	-0.129731	0.938788	-0.290351	-0.144265	0.894721	-0.319881	-0.160387	0.911230	-0.335985	-0.155550	0.965906	-0.316694	-0.156041	1.225586	-0.148880	-0.101841	1.228817	-0.175332	-0.089645	1.290761	-0.166872	-0.137108	1.295331	-0.132201	-0.048563	1.338210	0.161530	-0.110250	1.292411	0.126482	-0.074951	1.338091	0.125611	-0.072020	1.292527	0.178744	-0.008526	1.368677	0.092757	-0.084037	1.161853	0.133095	-0.061975	1.346994	-0.056015	-0.099450	1.312767	0.118731
5292	52.920000	0.066094	1.450128	0.029089	0.058036	1.223154	0.030530	-0.137866	1.111655	-0.156436	-0.102422	1.070571	-0.116259	-0.171919	0.894187	-0.295415	-0.199369	0.923836	-0.321998	-0.068293	1.365154	-0.089506	-0.130001	0.938964	-0.290363	-0.144552	0.894970	-0.319966	-0.160686	0.911385	-0.335992	-0.155786	0.966064	-0.316717	-0.156064	1.225765	-0.148892	-0.101881	1.228973	-0.175387	-0.089634	1.290892	-0.166932	-0.137078	1.295510	-0.132223	-0.048633	1.338249	0.161515	-0.110293	1.292464	0.126411	-0.074988	1.338146	0.125577	-0.072079	1.292542	0.178689	-0.008564	1.368760	0.092783	-0.084051	1.161899	0.132980	-0.061857	1.347066	-0.056073	-0.099485	1.312830	0.118663
5293	52.930000	0.066077	1.450244	0.029195	0.058063	1.223267	0.030539	-0.137965	1.111788	-0.156481	-0.102512	1.070674	-0.116343	-0.172234	0.894352	-0.295448	-0.199673	0.924025	-0.322016	-0.068217	1.365291	-0.089520	-0.130245	0.939120	-0.290384	-0.144937	0.895156	-0.319995	-0.160943	0.911590	-0.336017	-0.156032	0.966200	-0.316718	-0.156097	1.225930	-0.148892	-0.101929	1.229101	-0.175450	-0.089616	1.291028	-0.166990	-0.137042	1.295656	-0.132223	-0.048718	1.338256	0.161491	-0.110357	1.292497	0.126333	-0.075045	1.338178	0.125547	-0.072162	1.292539	0.178619	-0.008606	1.368835	0.092808	-0.084077	1.161943	0.132873	-0.061729	1.347131	-0.056129	-0.099545	1.312867	0.118590
5294	52.940000	0.066060	1.450346	0.029299	0.058083	1.223368	0.030558	-0.138055	1.111915	-0.156525	-0.102594	1.070770	-0.116427	-0.172538	0.894513	-0.295478	-0.199971	0.924208	-0.322028	-0.068142	1.365414	-0.089535	-0.130493	0.939243	-0.290414	-0.145271	0.895350	-0.320017	-0.161261	0.911727	-0.335992	-0.156258	0.966348	-0.316739	-0.156095	1.226078	-0.148904	-0.101959	1.229221	-0.175499	-0.089587	1.291152	-0.167045	-0.136993	1.295800	-0.132233	-0.048806	1.338278	0.161460	-0.110392	1.292536	0.126228	-0.075105	1.338224	0.125502	-0.072260	1.292558	0.178547	-0.008651	1.368903	0.092834	-0.084115	1.161985	0.132776	-0.061592	1.347188	-0.056183	-0.099625	1.312935	0.118525
5295	52.950000	0.066041	1.450441	0.029404	0.058099	1.223461	0.030586	-0.138137	1.112034	-0.156563	-0.102666	1.070859	-0.116504	-0.172832	0.894669	-0.295509	-0.200263	0.924388	-0.322034	-0.068067	1.365525	-0.089548	-0.130813	0.939337	-0.290434	-0.145604	0.895522	-0.320038	-0.161581	0.911829	-0.336005	-0.156560	0.966472	-0.316730	-0.156169	1.226333	-0.148947	-0.101992	1.229372	-0.175533	-0.089564	1.291239	-0.167091	-0.136920	1.295936	-0.132242	-0.048927	1.338297	0.161441	-0.110457	1.292542	0.126146	-0.075191	1.338249	0.125483	-0.072361	1.292558	0.178483	-0.008701	1.368966	0.092862	-0.084159	1.162023	0.132688	-0.061447	1.347239	-0.056235	-0.099689	1.312961	0.118465
5296	52.960000	0.066026	1.450520	0.029508	0.058110	1.223539	0.030624	-0.138209	1.112144	-0.156600	-0.102728	1.070939	-0.116580	-0.173104	0.894820	-0.295536	-0.200543	0.924557	-0.322033	-0.067989	1.365620	-0.089559	-0.131061	0.939408	-0.290470	-0.145897	0.895619	-0.320095	-0.161965	0.911932	-0.336027	-0.156838	0.966630	-0.316766	-0.156093	1.226383	-0.148906	-0.101991	1.229463	-0.175575	-0.089518	1.291340	-0.167129	-0.136861	1.296036	-0.132242	-0.049029	1.338340	0.161423	-0.110541	1.292597	0.126081	-0.075236	1.338304	0.125424	-0.072462	1.292595	0.178433	-0.008750	1.369019	0.092893	-0.084211	1.162057	0.132611	-0.061297	1.347281	-0.056281	-0.099773	1.313008	0.118410
5297	52.970000	0.066010	1.450594	0.029617	0.058122	1.223612	0.030675	-0.138271	1.112246	-0.156627	-0.102778	1.071012	-0.116647	-0.173361	0.894966	-0.295566	-0.200812	0.924722	-0.322029	-0.067909	1.365704	-0.089566	-0.131302	0.939499	-0.290541	-0.146131	0.895740	-0.320150	-0.162320	0.912016	-0.336068	-0.157107	0.966796	-0.316805	-0.156083	1.226479	-0.148892	-0.102016	1.229534	-0.175604	-0.089496	1.291392	-0.167147	-0.136796	1.296125	-0.132243	-0.049143	1.338379	0.161420	-0.110603	1.292612	0.126013	-0.075314	1.338331	0.125413	-0.072571	1.292623	0.178408	-0.008801	1.369069	0.092929	-0.084264	1.162088	0.132546	-0.061146	1.347318	-0.056322	-0.099838	1.313034	0.118369
5298	52.980000	0.065999	1.450659	0.029729	0.058136	1.223675	0.030737	-0.138322	1.112339	-0.156649	-0.102815	1.071079	-0.116708	-0.173594	0.895107	-0.295596	-0.201065	0.924880	-0.322019	-0.067823	1.365776	-0.089568	-0.131542	0.939621	-0.290593	-0.146373	0.895866	-0.320251	-0.162658	0.912115	-0.336108	-0.157315	0.966959	-0.316903	-0.156075	1.226551	-0.148870	-0.102036	1.229592	-0.175625	-0.089472	1.291448	-0.167170	-0.136736	1.296203	-0.132234	-0.049246	1.338443	0.161415	-0.110668	1.292668	0.125984	-0.075369	1.338386	0.125385	-0.072661	1.292676	0.178391	-0.008849	1.369112	0.092971	-0.084317	1.162115	0.132493	-0.060996	1.347350	-0.056356	-0.099905	1.313077	0.118344
5299	52.990000	0.065991	1.450716	0.029847	0.058154	1.223732	0.030812	-0.138362	1.112424	-0.156663	-0.102839	1.071139	-0.116763	-0.173802	0.895243	-0.295627	-0.201301	0.925030	-0.322006	-0.067732	1.365838	-0.089564	-0.131717	0.939752	-0.290758	-0.146649	0.895966	-0.320306	-0.162959	0.912216	-0.336190	-0.157530	0.967091	-0.316967	-0.156076	1.226616	-0.148830	-0.102055	1.229642	-0.175642	-0.089462	1.291484	-0.167192	-0.136695	1.296252	-0.132208	-0.049326	1.338487	0.161441	-0.110711	1.292700	0.125941	-0.075422	1.338419	0.125382	-0.072757	1.292708	0.178394	-0.008894	1.369151	0.093020	-0.084368	1.162138	0.132451	-0.060849	1.347378	-0.056381	-0.099981	1.313105	0.118322
5300	53.000000	0.065985	1.450773	0.029973	0.058180	1.223787	0.030899	-0.138392	1.112502	-0.156666	-0.102849	1.071195	-0.116806	-0.173986	0.895377	-0.295662	-0.201519	0.925178	-0.321990	-0.067636	1.365893	-0.089551	-0.131887	0.939913	-0.290903	-0.146831	0.896093	-0.320409	-0.163181	0.912371	-0.336302	-0.157709	0.967206	-0.317017	-0.156068	1.226683	-0.148789	-0.102077	1.229696	-0.175650	-0.089475	1.291538	-0.167186	-0.136665	1.296300	-0.132151	-0.049386	1.338532	0.161456	-0.110763	1.292741	0.125928	-0.075475	1.338449	0.125385	-0.072866	1.292759	0.178409	-0.008937	1.369188	0.093077	-0.084410	1.162158	0.132421	-0.060708	1.347406	-0.056398	-0.099998	1.313133	0.118291
